<mxfile host="app.diagrams.net" modified="2023-06-27T02:50:16.477Z" agent="Mozilla/5.0 (Windows NT 10.0; Win64; x64) AppleWebKit/537.36 (KHTML, like Gecko) Chrome/114.0.0.0 Safari/537.36 Edg/114.0.1823.58" version="21.3.8" etag="_jvtIdvfOn_THnUynKok" type="github">
  <diagram name="第 1 页" id="L8TstAGEym9d4AjhLlm4">
    <mxGraphModel>
      <root>
        <mxCell id="0" />
        <mxCell id="1" parent="0" />
      </root>
    </mxGraphModel>
  </diagram>
</mxfile>
